<mxfile host="app.diagrams.net" agent="Mozilla/5.0 (Windows NT 10.0; Win64; x64) AppleWebKit/537.36 (KHTML, like Gecko) Chrome/136.0.0.0 Safari/537.36 Edg/136.0.0.0" version="27.0.3" pages="2">
  <diagram id="9AZZy1MVJybw1LwkbS-v" name="linux整体">
    <mxGraphModel dx="1418" dy="760" grid="1" gridSize="10" guides="1" tooltips="1" connect="1" arrows="1" fold="1" page="1" pageScale="1" pageWidth="827" pageHeight="1169" math="0" shadow="0">
      <root>
        <mxCell id="0" />
        <mxCell id="1" parent="0" />
        <mxCell id="gU4bwdlZEFnRgDGg_MU_-1" value="fs" style="rounded=1;whiteSpace=wrap;html=1;" vertex="1" parent="1">
          <mxGeometry x="100" y="170" width="70" height="30" as="geometry" />
        </mxCell>
        <mxCell id="gU4bwdlZEFnRgDGg_MU_-2" value="mm" style="rounded=1;whiteSpace=wrap;html=1;" vertex="1" parent="1">
          <mxGeometry x="100" y="220" width="70" height="30" as="geometry" />
        </mxCell>
        <mxCell id="gU4bwdlZEFnRgDGg_MU_-3" value="include" style="rounded=1;whiteSpace=wrap;html=1;" vertex="1" parent="1">
          <mxGeometry x="100" y="270" width="70" height="30" as="geometry" />
        </mxCell>
        <mxCell id="gU4bwdlZEFnRgDGg_MU_-4" value="kernel" style="rounded=1;whiteSpace=wrap;html=1;" vertex="1" parent="1">
          <mxGeometry x="100" y="320" width="70" height="30" as="geometry" />
        </mxCell>
      </root>
    </mxGraphModel>
  </diagram>
  <diagram name="内存管理" id="LaXOZKAxGzR8MtfQSMSy">
    <mxGraphModel dx="1182" dy="633" grid="1" gridSize="10" guides="1" tooltips="1" connect="1" arrows="1" fold="1" page="1" pageScale="1" pageWidth="827" pageHeight="1169" math="0" shadow="0">
      <root>
        <mxCell id="0" />
        <mxCell id="1" parent="0" />
      </root>
    </mxGraphModel>
  </diagram>
</mxfile>
